<svg width="136" height="42" viewBox="0 0 136 42" fill="none" xmlns="http://www.w3.org/2000/svg">
<path d="M84.4416 18.0343C84.4383 18.05 84.4368 18.066 84.4373 18.082L84.6372 18.0761C84.4373 18.082 84.4373 18.082 84.4373 18.0822L84.4373 18.0828L84.4374 18.0853L84.4377 18.0953L84.4389 18.1348L84.4434 18.2892L84.4609 18.8778L84.5237 21.0005L84.7199 27.6372C84.8663 32.5949 85.023 37.9124 85.0642 39.3523C85.0726 39.6492 85.1877 39.9463 85.4522 40.1383C85.6928 40.313 86.0658 40.525 86.5239 40.5867C86.9891 40.6494 87.5271 40.5548 88.0816 40.1392C88.3408 39.9449 88.4642 39.6454 88.4771 39.3461C88.521 38.3214 88.579 36.4645 88.6446 34.3598C88.6848 33.0718 88.7278 31.691 88.7724 30.3513C88.8311 28.5858 88.8923 26.8913 88.9529 25.5721C88.9832 24.9123 89.0133 24.3475 89.0428 23.9151C89.0724 23.4806 89.1006 23.1948 89.125 23.0765C89.8708 20.1309 91.101 18.3478 92.3093 17.1851C93.2063 16.3221 94.0821 15.8044 94.7755 15.3946C95.0257 15.2468 95.2522 15.1129 95.4473 14.982L95.4479 14.9816C95.8716 14.695 96.106 14.3336 96.178 13.9524C96.2493 13.5746 96.157 13.199 95.9681 12.8867C95.5957 12.2714 94.8058 11.8472 94.0224 12.1518L94.0214 12.1522L87.0119 14.9233L87.0119 14.9231L87.0025 14.9273C86.4529 15.1778 85.9072 15.5009 85.4507 15.992C84.9925 16.4849 84.633 17.1377 84.4416 18.0343Z" fill="black" stroke="black" stroke-width="0.4" stroke-linejoin="round"/>
<path d="M46.7819 18.3506L46.7819 18.3506L46.7821 18.3463L46.8427 16.737C46.8696 16.0224 46.5552 15.2411 45.8174 14.9732C45.3459 14.8019 44.8132 14.7156 44.1675 14.7156C43.5702 14.7156 43.0665 14.794 42.6216 14.9439C41.8597 15.2006 41.5376 16.0034 41.5742 16.7333L41.6531 18.3055L41.6535 18.3124L41.6535 18.313L41.6536 18.3159C41.6618 18.5228 42.3399 35.6848 42.4952 39.1355C42.5147 39.5689 42.6839 40.0149 43.0961 40.2649C43.5823 40.5596 44.3996 40.8499 45.2955 40.3284C45.741 40.0691 45.9214 39.589 45.9411 39.1259C45.9871 38.0396 46.0778 35.6902 46.1841 32.937C46.4005 27.3302 46.6815 20.0489 46.7819 18.3506ZM46.9164 7.71071C46.9164 6.2583 45.7147 5.09822 44.2346 5.09822C42.7544 5.09822 41.5528 6.2583 41.5528 7.71071C41.5528 9.16313 42.7544 10.3232 44.2346 10.3232C45.7147 10.3232 46.9164 9.16313 46.9164 7.71071Z" fill="black" stroke="black" stroke-width="0.4" stroke-linejoin="round"/>
<path d="M2.89034 1.31942L2.89031 1.31935C2.86783 1.25455 2.82278 1.20605 2.79049 1.17586C2.75379 1.14155 2.70956 1.10912 2.66227 1.07933C2.56726 1.01947 2.4449 0.960868 2.30835 0.912902C2.03863 0.818153 1.68377 0.754687 1.34878 0.831306C0.883705 0.93768 0.603796 1.36103 0.475278 1.61069C0.368963 1.81722 0.369768 2.02422 0.423862 2.22437C1.30246 5.47528 4.11911 13.9494 6.87488 21.9338C8.25333 25.9276 9.6175 29.8016 10.7179 32.8426C11.8156 35.8759 12.6561 38.0951 12.9852 38.7681C14.5354 41.9864 19.3085 41.9785 20.9233 38.7707L20.9235 38.7705C21.2525 38.1143 22.0802 35.9064 23.1628 32.884C24.2483 29.8537 25.5961 25.9872 26.9682 21.999C29.7122 14.023 32.5546 5.55592 33.591 2.31117C33.6658 2.07684 33.6693 1.83056 33.5326 1.59267C33.3927 1.3492 33.1166 0.968565 32.7024 0.865633C32.4386 0.789664 32.1154 0.785353 31.7392 0.924021C31.2639 1.09921 30.9887 1.53827 30.8413 1.95815C27.4798 11.5338 22.257 24.2102 18.3509 32.9214C18.1058 33.3972 17.8611 33.7428 17.623 33.9677C17.3851 34.1925 17.166 34.2859 16.966 34.2875C16.7662 34.289 16.5457 34.1991 16.3043 33.9755C16.0626 33.7517 15.812 33.4044 15.5587 32.9209C11.6031 24.0897 6.20748 10.8953 2.89034 1.31942Z" fill="black" stroke="black" stroke-width="0.4" stroke-linejoin="round"/>
<path d="M115.26 24.8297L124.781 25.3511L132.421 40.6695C132.434 40.7085 132.456 40.7375 132.469 40.7532C132.484 40.7716 132.501 40.7883 132.517 40.8029C132.549 40.8323 132.589 40.8624 132.633 40.8917C132.722 40.9505 132.841 41.0139 132.977 41.0677C133.244 41.1736 133.609 41.2531 133.968 41.157C134.232 41.0921 134.437 40.9149 134.583 40.7419C134.731 40.5663 134.835 40.3762 134.891 40.2536C134.95 40.1278 134.952 40.0057 134.92 39.8849C134.085 36.7456 131.262 28.2533 128.488 20.2176C127.101 16.198 125.725 12.2896 124.614 9.21776C123.506 6.15232 122.657 3.90575 122.326 3.22167C120.776 0.00324178 116.003 0.0108904 114.388 3.21845C114.051 3.88185 113.221 6.08697 112.137 9.10186C111.051 12.1253 109.705 15.9811 108.334 19.9605C105.593 27.9189 102.754 36.3757 101.702 39.6631C101.618 39.9278 101.625 40.2198 101.793 40.4753C101.949 40.7138 102.229 41.0447 102.642 41.1563C102.647 41.1576 102.651 41.1587 102.656 41.1596C102.975 41.2215 103.401 41.2288 103.921 40.9516C104.163 40.8229 104.316 40.5995 104.397 40.3658C107.722 30.7567 113.046 17.9044 116.994 9.10069C117.239 8.62495 117.484 8.27937 117.722 8.05444C117.96 7.82964 118.179 7.73618 118.379 7.73465C118.579 7.73312 118.799 7.823 119.041 8.04664C119.282 8.27034 119.533 8.61737 119.786 9.10049C121.26 12.4716 122.399 15.0853 123.187 16.9133C123.581 17.828 123.886 18.5454 124.102 19.0623C124.32 19.5854 124.44 19.8908 124.47 19.9918L124.47 19.9918L124.471 19.9966C124.482 20.0294 124.492 20.0614 124.502 20.0929C124.574 20.3152 124.635 20.5049 124.677 20.6706C124.727 20.8623 124.743 20.9969 124.731 21.0924C124.721 21.1742 124.692 21.222 124.63 21.261C124.555 21.3086 124.419 21.3503 124.179 21.3659L124.177 21.366L114.988 22.0506L114.988 22.0506L114.982 22.0511C114.229 22.1283 113.757 22.7895 113.742 23.4356C113.735 23.7645 113.844 24.0997 114.1 24.3613C114.356 24.623 114.742 24.7944 115.257 24.8295L115.26 24.8297Z" fill="black" stroke="black" stroke-width="0.4" stroke-linejoin="round"/>
<path d="M72.747 11.4678L72.7469 11.4678L67.4096 13.5804C67.3719 12.1286 67.3974 7.66344 67.4118 5.60251C67.4168 4.89219 67.0957 4.12929 66.3854 3.83164C65.9689 3.65713 65.5045 3.56422 64.8721 3.56422C64.2553 3.56422 63.7988 3.63855 63.3941 3.78293C62.6403 4.05189 62.294 4.84819 62.3019 5.58251C62.3177 7.05986 62.3379 8.53569 62.358 10.0112C62.3825 11.8053 62.407 13.599 62.4238 15.3942C61.7133 15.6856 61.2177 16.377 61.2177 17.196C61.2177 17.519 61.2915 17.8138 61.4436 18.0747L61.4914 18.1677L61.5417 18.2655C61.7958 18.7596 62.4599 20.2958 62.6265 23.4637C62.7865 28.6916 62.9466 33.9207 63.1651 39.1217C63.1866 39.6338 63.3858 40.1998 63.9036 40.4647C64.3362 40.686 64.967 40.8478 65.6615 40.5204C66.2438 40.2459 66.4567 39.5991 66.481 39.039C66.5482 37.4845 66.706 33.987 66.8686 30.766C66.9499 29.1555 67.0324 27.6146 67.1054 26.4206C67.1418 25.8234 67.1759 25.3138 67.2062 24.9258C67.2366 24.5359 67.2624 24.2814 67.2815 24.1806C68.0786 20.6152 69.4773 18.4993 70.8607 17.1346C71.554 16.4506 72.2473 15.9516 72.8676 15.5516C73.1257 15.3852 73.3701 15.2366 73.5981 15.0979C73.6448 15.0695 73.6908 15.0416 73.7361 15.0139C74.0004 14.8527 74.2425 14.7023 74.4467 14.5545C75.2405 13.9847 75.3669 12.9955 75.0266 12.2661C74.8552 11.8985 74.5617 11.5869 74.1651 11.4244C73.7662 11.2609 73.2825 11.256 72.747 11.4678Z" fill="black" stroke="black" stroke-width="0.4" stroke-linejoin="round"/>
</svg>
