<svg width="25" height="25" viewBox="0 0 25 25" fill="none" xmlns="http://www.w3.org/2000/svg">
<path fill-rule="evenodd" clip-rule="evenodd" d="M21.836 8.26716C21.9719 7.82499 21.836 7.5 21.1885 7.5H19.0475C18.5031 7.5 18.2522 7.78072 18.1161 8.0902C18.1161 8.0902 17.0274 10.6773 15.485 12.3577C14.986 12.8442 14.7592 12.9989 14.487 12.9989C14.3509 12.9989 14.1539 12.8442 14.1539 12.402V8.26716C14.1539 7.73644 13.9959 7.5 13.5422 7.5H10.1778C9.83754 7.5 9.63292 7.74628 9.63292 7.97974C9.63292 8.48273 10.4041 8.59886 10.4837 10.0139V13.0875C10.4837 13.7613 10.3589 13.8836 10.0867 13.8836C9.36087 13.8836 7.59533 11.2848 6.54825 8.31144C6.34302 7.73346 6.13718 7.5 5.59001 7.5H3.44904C2.83734 7.5 2.715 7.78072 2.715 8.0902C2.715 8.64299 3.44078 11.3848 6.09452 15.0112C7.86372 17.4875 10.3564 18.83 12.6246 18.83C13.9855 18.83 14.1539 18.5318 14.1539 18.0183V16.1466C14.1539 15.5503 14.2828 15.4313 14.7137 15.4313C15.0312 15.4313 15.5756 15.586 16.8458 16.78C18.2976 18.1952 18.5369 18.83 19.3534 18.83H21.4943C22.1061 18.83 22.4119 18.5318 22.2354 17.9434C22.0424 17.357 21.3492 16.5062 20.4297 15.4976C19.9307 14.9226 19.1821 14.3037 18.9553 13.994C18.6377 13.596 18.7285 13.419 18.9553 13.0653C18.9553 13.0653 21.5638 9.48335 21.836 8.26716" fill="currentColor"/>
</svg>
