<svg width="25" height="25" viewBox="0 0 25 25" fill="none" xmlns="http://www.w3.org/2000/svg">
<path fill-rule="evenodd" clip-rule="evenodd" d="M21.8954 7.08424C22.2197 7.39382 22.4533 7.77888 22.5728 8.20112C23.0208 9.76578 22.9998 13.028 22.9998 13.028C22.9998 13.028 22.9967 16.2722 22.5623 17.8359C22.441 18.2577 22.2061 18.6421 21.881 18.9511C21.5558 19.26 21.1516 19.4828 20.7083 19.5973C19.0651 20.007 12.4915 20 12.4915 20C12.4915 20 5.93577 19.993 4.27584 19.5634C3.37558 19.3326 2.66733 18.6561 2.426 17.7999C1.99581 16.2512 2 12.99 2 12.99C2 12.99 2.0042 9.74479 2.43754 8.18014C2.56061 7.75762 2.79567 7.37232 3.12015 7.06123C3.44464 6.75014 3.84767 6.5237 4.29053 6.40366C5.93472 5.99301 12.5073 6.00001 12.5073 6.00001C12.5073 6.00001 19.0809 6.007 20.724 6.43663C21.1672 6.55139 21.571 6.77467 21.8954 7.08424ZM17 13L10 9V17L17 13Z" fill="white"/>
</svg>
