<svg width="25" height="25" viewBox="0 0 25 25" fill="none" xmlns="http://www.w3.org/2000/svg">
<path fill-rule="evenodd" clip-rule="evenodd" d="M8.99588 4.051C9.90254 4.00992 10.1915 4 12.5 4C14.8085 4 15.0982 4.00992 16.0055 4.05171C19.0953 4.19338 20.8102 5.91179 20.949 8.99588C20.9901 9.90254 21 10.1915 21 12.5C21 14.8085 20.9901 15.0982 20.9483 16.0048C20.8088 19.0946 19.0889 20.8073 16.0048 20.949C15.0982 20.9901 14.8085 21 12.5 21C10.1915 21 9.90254 20.9901 8.99517 20.949C5.90542 20.8073 4.19267 19.0918 4.051 16.0048C4.00992 15.0982 4 14.8085 4 12.5C4 10.1915 4.00992 9.90254 4.05171 8.99517C4.19338 5.90542 5.90896 4.19267 8.99588 4.051ZM7 12.4996C7 9.46239 9.46259 7 12.5 7C15.5374 7 18 9.46239 18 12.4996C18 15.5376 15.5374 18 12.5 18C9.46259 18 7 15.5367 7 12.4996ZM17.501 6C16.6719 6 16 6.67188 16 7.5C16 8.32812 16.6719 9 17.501 9C18.3292 9 19 8.32812 19 7.5C19 6.67188 18.3292 6 17.501 6ZM9 12.5C9 14.4338 10.5671 16 12.5 16C14.4329 16 16 14.4338 16 12.5C16 10.5671 14.4329 9 12.5 9C10.5671 9 9 10.5671 9 12.5Z" fill="currentColor"/>
</svg>
