<svg width="16" height="16" viewBox="0 0 16 16" fill="none" xmlns="http://www.w3.org/2000/svg">
<rect width="16" height="16" rx="8" fill="#F7F4F4"/>
<path d="M4.4355 2.75693L4.43547 2.75686C4.4177 2.70558 4.38467 2.67284 4.37061 2.65968C4.35214 2.64241 4.33238 2.62831 4.3147 2.61716C4.27891 2.59461 4.23637 2.5746 4.19159 2.55886C4.10539 2.52856 3.98182 2.50404 3.85663 2.53269C3.80014 2.54562 3.75174 2.56952 3.71164 2.59714C3.58021 2.68764 3.52858 2.82102 3.51676 2.94266C3.50547 3.05884 3.52843 3.17521 3.55498 3.26773C3.84223 4.26859 4.57684 6.46995 5.27926 8.50118C5.63082 9.5178 5.97497 10.4937 6.25201 11.258C6.52639 12.0149 6.73999 12.5788 6.8286 12.7602C7.29268 13.7234 8.70858 13.7155 9.18791 12.7628L9.18805 12.7625C9.2767 12.5856 9.48578 12.0283 9.75392 11.2813C10.0248 10.5266 10.362 9.56102 10.7093 8.55289C11.4038 6.53684 12.1401 4.34755 12.4702 3.32962C12.5054 3.22113 12.5368 3.08025 12.524 2.94469C12.5105 2.80191 12.4424 2.63846 12.258 2.5613C12.241 2.55416 12.2229 2.54797 12.2039 2.54309C11.9771 2.47891 11.7994 2.59498 11.6895 2.72038C11.5811 2.84396 11.5069 3.00669 11.4603 3.13798C10.5738 5.63365 9.24562 8.85405 8.2447 11.0879C8.18481 11.2035 8.12989 11.2779 8.0841 11.3212C8.03863 11.3641 8.01475 11.3654 8.01068 11.3654C8.00685 11.3654 7.98315 11.3648 7.93721 11.3222C7.89085 11.2793 7.83468 11.2047 7.77282 11.0873C6.73012 8.75759 5.3088 5.27948 4.4355 2.75693Z" fill="black" stroke="black" stroke-width="0.4" stroke-linejoin="round"/>
</svg>
